<svg width="52" height="33" viewBox="0 0 52 33" fill="none" xmlns="http://www.w3.org/2000/svg">
<path fill-rule="evenodd" clip-rule="evenodd" d="M5.56181 12.2298L5.29014 12.3026C3.77588 13.0103 2.73701 13.4397 2.17356 13.5906L1.99245 13.6392C1.54973 13.7578 1.03586 13.8524 0.450836 13.9228C0.112014 14.5097 -0.0358291 14.8836 0.00730744 15.0446C0.0475543 15.0338 0.083854 15.0888 0.116206 15.2095L0.120541 15.4672L0.286056 15.8434L0.367518 16.6304C0.410655 16.7914 0.53284 16.8449 0.734075 16.791L1.60136 16.5263C1.74222 16.4885 1.87177 16.5293 1.99001 16.6486C2.3505 17.35 3.02349 18.453 4.00898 19.9576C4.30371 20.655 4.58621 21.2264 4.85648 21.6716C5.97205 23.0982 6.99778 24.5919 7.93367 26.1529C8.80092 27.5381 9.60976 28.9066 10.3602 30.2585C10.9248 31.0778 11.2503 31.6484 11.3365 31.9704C11.5307 32.6948 11.9296 32.9761 12.5333 32.8144C14.265 32.1131 15.1119 31.6921 15.0742 31.5512L15.058 31.4908C14.9196 31.3769 14.8424 31.2898 14.8262 31.2294L14.81 31.1691C15.1329 29.6375 15.2664 27.3586 15.2105 24.3325C15.0019 22.7492 14.9614 21.3904 15.0888 20.2563C15.2436 18.3384 15.2518 16.2764 15.1136 14.0704C15.0705 13.9094 15.8787 13.585 17.5381 13.0972C17.6589 13.0648 17.6357 12.7367 17.4685 12.1129L17.1773 11.0263L17.1892 10.829L17.1288 10.8451C16.9994 10.3622 16.9146 10.1261 16.8743 10.1369L12.885 10.4617C12.5429 10.5534 12.2231 10.7685 11.9255 11.107C11.5554 11.3356 11.4216 11.6411 11.524 12.0234L12.0659 14.0458C12.0983 14.1666 12.1829 14.2409 12.3198 14.269C12.7841 14.2308 13.0432 14.3124 13.0972 14.5136L13.1214 14.6042C13.2077 14.9261 13.199 16.0608 13.0953 18.0082C13.1325 19.9178 13.0571 21.4477 12.8693 22.5981L13.0467 22.777C13.1815 23.2801 13.1973 24.2248 13.0943 25.6112C13.1452 27.7329 13.0272 28.9831 12.7405 29.3619L12.6801 29.378C12.4588 29.4373 11.7637 28.3726 10.5949 26.1839C9.50195 24.6003 8.8746 23.5067 8.71283 22.903C8.63735 22.6212 8.36365 22.123 7.89176 21.4083C7.71382 20.7442 7.53482 20.3177 7.35477 20.1287L7.15257 19.374C7.10943 19.2131 6.94339 18.9556 6.65444 18.6017L6.32615 18.4632L6.26954 18.2519L6.26087 17.7365C6.16131 17.526 6.0914 17.4261 6.05116 17.4369C5.56953 16.4444 5.12749 16.002 4.72502 16.1099L4.61453 16.3012C4.4133 16.3552 4.2629 16.2768 4.16334 16.0663L4.22371 16.0501L4.4431 16.0236L4.59995 15.8846C5.88496 15.3677 6.51129 15.0489 6.47893 14.9282L6.45467 14.8376C6.29618 14.7291 6.20077 14.6145 6.16841 14.4937L6.15224 14.4334C6.29416 14.1581 6.34625 13.95 6.3085 13.8091L6.09229 13.123L6.0842 13.0928C6.05185 12.972 6.04968 12.8432 6.0777 12.7063L6.05344 12.6157C5.7796 12.5597 5.6346 12.5015 5.61842 12.4411L5.56181 12.2298ZM0.353353 14.8872L0.296737 14.6759C0.374341 14.4825 0.423205 14.3832 0.443328 14.3778C0.584192 14.34 0.726501 14.3882 0.870255 14.5222C0.902608 14.6429 0.730307 14.7646 0.353353 14.8872ZM13.576 10.9883L14.8519 10.6788L14.8762 10.7693L14.8099 10.8842L14.4477 10.9812C14.0197 11.0743 13.7291 11.0767 13.576 10.9883ZM1.56943 15.079L1.56134 15.0488L1.61362 15.0024C3.28888 14.2516 4.34786 13.8169 4.79058 13.6982L4.91348 13.7947C4.95123 13.9356 3.88955 14.3602 1.72844 15.0687L1.56943 15.079ZM0.763679 16.2978C0.634657 16.1383 0.494657 15.7767 0.343679 15.2133C0.322111 15.1328 0.341512 15.0845 0.401882 15.0683L0.432067 15.0602C0.532684 15.0332 0.673936 15.3189 0.855821 15.9172C0.874887 16.1494 0.864296 16.2708 0.824049 16.2816L0.763679 16.2978ZM12.9638 12.4464L12.9315 12.3257C12.9983 12.0921 13.1625 11.9403 13.4241 11.8702L13.6958 11.7974L13.8025 11.8335C13.8069 12.0911 13.6178 12.2712 13.2355 12.3736L12.9638 12.4464ZM16.0567 11.553C15.9561 11.5799 15.8474 11.5767 15.7306 11.5433C15.6821 11.3622 15.7584 11.2447 15.9597 11.1908L16.171 11.1341C16.2917 11.1018 16.3857 11.1305 16.4529 11.2204C16.4852 11.3411 16.3532 11.452 16.0567 11.553ZM16.2234 12.8995C16.1429 12.921 16.0973 12.9117 16.0865 12.8715C16.0703 12.8111 16.195 12.713 16.4606 12.5771C16.5942 12.1099 16.7187 11.8501 16.834 11.7976C17.0151 11.7491 17.1327 11.8255 17.1866 12.0267L17.2432 12.238C17.3079 12.4795 16.968 12.7 16.2234 12.8995ZM13.0291 13.173L13.1116 13.1186L13.4134 13.0377L13.5283 13.104L13.4701 13.249L13.4399 13.2571C13.2386 13.311 13.1017 13.283 13.0291 13.173ZM2.84112 16.3235L2.90149 16.3073L2.98612 16.3817L3.0023 16.4421L2.94193 16.4582L2.86538 16.414L2.84112 16.3235ZM12.6335 13.9908L12.73 13.8679L12.8146 13.9423L12.8308 14.0026L12.7866 14.0792L12.7263 14.0954L12.6335 13.9908ZM15.5755 13.1378L15.6661 13.1135L15.6822 13.1739L15.5917 13.1982L15.5755 13.1378ZM3.07509 16.7137L3.1112 16.607L3.17157 16.5908L3.18774 16.6512L3.09127 16.7741L3.07509 16.7137ZM4.52239 16.6818L4.5806 16.5368L4.67115 16.5125C4.75165 16.491 4.92236 16.7256 5.18329 17.2165C5.32955 17.1988 5.53459 17.5213 5.79841 18.184L5.64966 18.3532L5.68201 18.474C5.72514 18.635 5.81714 18.6966 5.95801 18.6589C6.119 18.6157 6.25071 18.7853 6.35316 19.1677L6.46856 19.7191L6.48474 19.7795L6.45456 19.7875C6.37406 19.8091 6.29607 19.679 6.22058 19.3973C5.59309 18.7458 5.02703 17.8407 4.52239 16.6818ZM13.8192 17.3289L13.803 17.2685C13.7889 16.7331 13.8322 16.4519 13.9328 16.425L13.9932 16.4088L14.0315 16.4309C14.0107 16.9972 13.95 17.2939 13.8493 17.3208L13.8192 17.3289ZM6.54136 19.9908L6.52518 19.9304C6.69695 19.9275 6.80441 20.0065 6.84754 20.1675L6.87181 20.2581L6.86805 20.4856L6.83787 20.4936C6.75738 20.5152 6.65854 20.3476 6.54136 19.9908ZM13.926 19.1767C14.0267 19.1498 14.0579 18.9041 14.0198 18.4399C13.9192 18.4668 13.8879 18.7124 13.926 19.1767ZM6.98129 20.9082L7.07184 20.8839C7.18324 20.8972 7.31371 21.1426 7.46324 21.6202L7.40287 21.6363C7.32094 21.572 7.18849 21.3595 7.00555 20.9987L6.98129 20.9082ZM13.8889 20.1249L13.9051 20.1853C14.1208 20.9902 14.1489 21.4572 13.9893 21.5862L13.929 21.6024L13.8966 21.4816C13.8481 21.3005 13.8455 20.8483 13.8889 20.1249ZM7.90534 22.6664L7.93553 22.6583C8.15833 22.6849 8.38027 23.1107 8.60134 23.9358L8.65796 24.1471L8.5674 24.1713C8.26083 23.6711 8.04284 23.1795 7.91343 22.6966L7.90534 22.6664ZM9.07363 24.9739L9.10381 24.9658L9.24073 24.9938L9.33778 25.3561L9.27741 25.3722C9.21704 25.3884 9.15181 25.2657 9.08171 25.0041L9.07363 24.9739ZM9.45694 25.68L9.47904 25.6417C9.53941 25.6256 9.60392 25.7053 9.67257 25.881L9.55183 25.9134L9.47311 25.7404L9.45694 25.68ZM14.54 25.9356L14.5099 25.9437C14.4922 25.7974 14.5136 25.7162 14.574 25.7L14.6063 25.8208L14.54 25.9356ZM13.5246 26.8547L13.4642 26.8709C13.4261 26.4066 13.4372 26.1664 13.4976 26.1502L13.5579 26.1341L13.5903 26.2548C13.628 26.3957 13.6162 26.5929 13.5548 26.8467L13.5246 26.8547ZM9.62853 27.7693L9.68081 27.7229C9.72106 27.7121 9.9261 28.0346 10.2959 28.6904L10.3445 28.8715L10.3143 28.8796C9.98113 28.6022 9.76872 28.2925 9.67706 27.9504L9.62853 27.7693ZM14.3467 27.508L14.3003 27.4557C14.2464 27.2545 14.2771 27.1276 14.3924 27.0751L14.5132 27.0428C14.5632 27.3098 14.5278 27.4595 14.407 27.4918L14.3467 27.508ZM11.4953 28.3367L11.5858 28.3125L11.6624 28.3567L11.6785 28.417L11.6182 28.4332L11.5114 28.3971L11.4953 28.3367ZM11.8565 29.0811L11.9168 29.0649L12.2149 29.2115L12.2635 29.3926L12.1449 29.5538L12.1147 29.5619C12.0745 29.5727 12.0019 29.4627 11.8969 29.232L11.8565 29.0811ZM13.867 28.7365L14.018 28.696C14.0978 29.2354 14.0673 29.524 13.9264 29.5617L13.866 29.5779C13.8013 29.3364 13.8017 29.056 13.867 28.7365ZM13.7309 31.0053L13.6985 30.8845C13.5961 30.5022 13.644 30.1982 13.8423 29.9725C13.9027 29.9563 13.9383 29.9683 13.9491 30.0086L13.9653 30.069C14.0559 30.6486 14.0207 30.96 13.8597 31.0031C13.7792 31.0247 13.7362 31.0254 13.7309 31.0053ZM13.8117 31.3071L13.878 31.1923L13.9082 31.1842L14.0613 31.2726L14.0775 31.333L14.0414 31.4397L13.9508 31.464L13.836 31.3977L13.8117 31.3071ZM13.1461 31.8414L13.1299 31.781C13.0868 31.62 13.1229 31.5133 13.2382 31.4608L13.2986 31.4446C13.41 31.4579 13.4846 31.535 13.5223 31.6759L13.5385 31.7362L13.1461 31.8414ZM12.0793 31.9654L12.1942 32.0317L12.2103 32.0921C12.2481 32.233 12.2294 32.3242 12.1543 32.3659L12.0939 32.3821L12.0174 32.3379C12.0012 32.2776 12.0219 32.1534 12.0793 31.9654ZM27.2273 13.6392C25.8258 13.2382 24.7024 13.151 23.8572 13.3775C22.8496 13.5612 22.266 13.7176 22.1065 13.8466C21.4439 14.1104 20.8899 14.3775 20.4447 14.6477C19.785 15.0833 19.4219 15.5796 19.3555 16.1366C18.2848 18.5804 18.108 21.1404 18.8252 23.8168L18.8333 23.847C18.9789 24.3904 19.2003 24.9349 19.4975 25.4808C20.3446 26.8714 20.7897 27.6472 20.8329 27.8082C21.189 28.252 21.5867 28.6091 22.0259 28.8797C23.1112 29.7104 24.1368 29.9964 25.1027 29.7376L26.9851 29.8803C27.5284 29.7347 28.419 29.3558 29.6569 28.7438C30.6976 28.1198 31.4008 27.5647 31.7666 27.0785C32.3735 26.2041 32.7272 25.7535 32.8278 25.7265C33.3873 25.6413 33.7264 25.82 33.845 26.2628L33.9658 26.2304C34.2475 26.1549 34.5971 25.6083 35.0146 24.5906L34.9822 24.4698C33.9896 23.7437 33.1803 23.0978 32.5543 22.5322C31.8883 22.3008 31.4406 22.1189 31.2109 21.9863C30.6425 22.4406 30.2454 23.1724 30.0199 24.1819L30.1207 24.3166C30.4132 24.2814 30.5648 24.2839 30.5756 24.3241L30.5999 24.4147C29.7616 25.955 29.1722 26.8139 28.8315 26.9914C28.4589 27.3717 28.2022 27.5806 28.0613 27.6184C27.2161 27.8449 26.4318 27.9364 25.7085 27.893C24.8481 27.8215 23.9296 27.2912 22.9528 26.302C22.4827 25.9966 22.2126 25.713 22.1425 25.4514L21.79 25.2224L21.7657 25.1318L21.9711 25.1739L21.963 25.1437L21.8924 25.0008C21.6132 24.9247 21.3711 24.5042 21.1662 23.7396C21.0368 23.2566 20.872 22.9233 20.6718 22.7397C20.6287 22.5787 20.6793 22.2847 20.8237 21.8578L21.4576 21.688C22.6248 21.3752 24.6896 20.9514 27.6521 20.4164C27.978 20.2644 28.2617 20.156 28.5032 20.0913L31.0689 19.4038L31.242 19.3251C31.1719 19.0635 31.1934 18.5401 31.3065 17.7549L31.2116 17.5215C31.12 17.1794 30.4452 16.271 29.1873 14.7963C29.1118 14.5146 28.4585 14.1289 27.2273 13.6392ZM21.2581 14.7857L21.2501 14.7555L21.2942 14.6789C21.9324 14.1628 22.5433 13.8266 23.1269 13.6702L23.1571 13.6622L23.2719 13.7284C23.2934 13.8089 23.2164 13.8835 23.0407 13.9522C22.2145 14.4108 21.6405 14.6832 21.3185 14.7695L21.2581 14.7857ZM20.1882 15.6223L20.1801 15.5921C20.1208 15.3708 20.2561 15.1512 20.586 14.9334L20.6464 14.9172L20.7994 15.0056L20.848 15.1867C20.8749 15.2874 20.7007 15.4419 20.3251 15.6504L20.295 15.6584L20.1882 15.6223ZM23.8422 14.2874L24.7478 14.0447C25 14.0203 25.1316 14.0282 25.1424 14.0684L25.1747 14.1892L25.1445 14.1972C24.3087 14.3781 23.88 14.4282 23.8584 14.3477L23.8422 14.2874ZM22.734 15.1019L22.726 15.0718C22.7044 14.9913 22.8217 14.9059 23.0779 14.8157L23.1685 14.7914C23.5508 14.689 23.8521 14.7269 24.0724 14.9051L24.1048 15.0258L24.0525 15.0722C23.1951 15.1725 22.7556 15.1824 22.734 15.1019ZM24.6239 14.7897L24.6158 14.7595C24.605 14.7193 24.6673 14.6702 24.8028 14.6123L24.8934 14.5881C25.3763 14.4587 25.7441 14.5434 25.9968 14.8424L26.6733 14.9523C26.9511 14.9426 27.1383 14.9571 27.235 14.9959L27.2431 15.0261L27.229 15.0946L27.0318 15.0827L26.7623 15.2843L26.7321 15.2924C26.6516 15.314 25.9488 15.1464 24.6239 14.7897ZM22.3282 15.7607C21.773 16.1036 21.4164 16.3824 21.2583 16.5974C21.1882 16.3357 21.4234 16.0463 21.9638 15.7289L22.2657 15.648L22.312 15.7003L22.3282 15.7607ZM20.2166 19.1088L20.1923 19.0182C20.4079 18.6154 20.5697 18.173 20.6779 17.6911C21.0717 17.0679 22.0578 16.3615 23.6364 15.5719L24.7113 15.478C25.311 15.382 25.9043 15.5034 26.4912 15.8423C27.74 16.4782 28.3994 16.927 28.4695 17.1886L28.6232 17.7621C28.6663 17.9231 28.6518 18.1103 28.5796 18.3238C28.4481 18.3159 28.3742 18.2818 28.358 18.2214C28.0763 18.2969 27.4979 18.3117 26.6229 18.2657L26.2386 18.4011L25.9125 18.3914C22.1745 19.091 20.2759 19.3302 20.2166 19.1088ZM20.0552 17.1785L20.039 17.1182C20.1073 16.9705 20.1918 16.8831 20.2924 16.8562L20.4433 16.8157L20.4514 16.8459C20.473 16.9264 20.361 17.0319 20.1156 17.1624L20.0552 17.1785ZM27.7029 15.7764C27.562 15.8141 27.4499 15.7579 27.3665 15.6077C27.3342 15.487 27.4086 15.4023 27.5897 15.3538L27.7509 15.4724L27.7994 15.6535L27.7633 15.7602L27.7029 15.7764ZM19.5831 17.9521L19.6192 17.8454L19.7399 17.813L19.748 17.8432L19.6516 17.9661L19.5912 17.9823L19.5831 17.9521ZM28.1056 15.8303L28.2263 15.7979L28.3029 15.8421C28.484 15.7936 28.7413 16.0697 29.0748 16.6705L29.0005 16.7552L28.8797 16.7875C28.7629 16.7541 28.5049 16.435 28.1056 15.8303ZM20.2176 18.2674C20.2553 18.4082 20.2165 18.5049 20.1012 18.5574C20.0634 18.4165 20.0995 18.3098 20.2095 18.2372L20.2176 18.2674ZM29.5422 16.9659L29.6166 16.8812L29.7071 16.857L29.7535 16.9093L29.7858 17.03C29.8182 17.1507 29.7968 17.232 29.7217 17.2737L29.5988 17.1772L29.5422 16.9659ZM20.1331 20.0047L20.1007 19.8839C20.1582 19.696 20.2473 19.5858 20.3681 19.5535L20.519 19.513L20.5433 19.6036C20.4858 19.7916 20.3947 19.9346 20.27 20.0327L20.2096 20.0489L20.1331 20.0047ZM18.7155 21.3551C18.6637 20.6788 18.6968 20.2386 18.8146 20.0344C18.8951 20.0129 18.969 20.047 19.0362 20.1368C18.9834 20.9059 18.8967 21.3066 18.7759 21.3389L18.7155 21.3551ZM22.0148 19.6622L21.9906 19.5717C23.0075 19.3423 23.9528 19.2077 24.8264 19.1677L24.8587 19.2884L24.4744 19.4238L24.2027 19.4966C23.1966 19.7662 22.4673 19.8214 22.0148 19.6622ZM27.6342 18.9006L27.7247 18.8764L27.749 18.9669L27.6584 18.9912L27.6342 18.9006ZM21.9799 20.7392L21.9637 20.6789C25.0749 19.9746 26.6575 19.7231 26.7114 19.9243C26.733 20.0048 26.3212 20.1583 25.476 20.3848C24.9528 20.525 24.6831 20.5649 24.6669 20.5045L25.2766 20.2441L25.2685 20.2139L25.2604 20.1837C23.5028 20.5468 22.4093 20.732 21.9799 20.7392ZM18.8207 21.7475L18.9716 21.707L19.1085 21.7351C19.1423 21.9417 19.1089 22.0585 19.0083 22.0854C18.9479 22.1016 18.9016 22.0493 18.8692 21.9286L18.8207 21.7475ZM21.29 21.1829L21.4328 21.1123L21.4409 21.1425L21.4571 21.2028L21.4894 21.3236L21.3385 21.364L21.29 21.1829ZM20.5397 21.6428L20.5316 21.6126C20.5542 21.4555 20.6561 21.3528 20.8372 21.3042L20.9277 21.28L21.0506 21.3764L21.0668 21.4368L20.5698 21.6347L20.5397 21.6428ZM28.4584 19.6827C28.0962 19.7798 27.9043 19.788 27.8827 19.7075C27.8774 19.6874 27.9498 19.6357 28.1 19.5523C28.4823 19.4498 28.6843 19.4389 28.7058 19.5194L28.722 19.5797L28.4584 19.6827ZM19.1523 22.9851L19.128 22.8945C19.3616 22.9613 19.6078 23.4777 19.8666 24.4436L19.8365 24.4517C19.5597 24.2239 19.3728 23.9289 19.2758 23.5667L19.2434 23.4459C19.1841 23.2246 19.1564 23.081 19.1604 23.0153L19.1523 22.9851ZM20.2845 25.3993L20.375 25.375L20.4516 25.4192L20.4678 25.4796L20.4074 25.4958L20.3007 25.4597L20.2845 25.3993ZM20.7017 25.8699L20.7238 25.8316C20.9883 25.9333 21.1421 26.0646 21.1853 26.2256L21.2015 26.2859L21.2095 26.3161C21.0486 26.3593 20.8847 26.2306 20.7179 25.9302L20.7017 25.8699ZM30.7216 23.5409L30.637 23.4665C30.6503 23.3551 30.7274 23.2806 30.8682 23.2428L30.8984 23.2347L31.0515 23.3231C31.0529 23.409 30.9933 23.4681 30.8726 23.5005L30.7216 23.5409ZM30.4803 25.4173L30.4118 25.4033C30.4571 25.0892 30.5904 24.9025 30.8118 24.8432L30.8279 24.9036C30.8377 25.1814 30.7318 25.3499 30.5105 25.4092L30.4803 25.4173ZM32.5469 24.7989L32.5086 24.7768C32.4763 24.656 32.5197 24.5365 32.639 24.4183L32.7296 24.394C32.7673 24.5349 32.7366 24.6617 32.6375 24.7746L32.5469 24.7989ZM33.454 24.1999L33.4842 24.1918C33.6653 24.1433 33.8057 24.2243 33.9052 24.4349L33.9133 24.4651L33.8691 24.5416L33.8389 24.5497C33.7182 24.5821 33.5953 24.4856 33.4702 24.2603L33.454 24.1999ZM32.0101 25.3309L31.9033 25.2948C31.8936 25.017 32.0296 24.8404 32.3113 24.7649L32.3415 24.7568L32.3577 24.8172C32.4008 24.9782 32.285 25.1494 32.0101 25.3309ZM29.7872 26.5736L29.7268 26.5898C29.6999 26.4891 29.7708 26.3515 29.9397 26.1768L29.978 26.1989C29.9956 26.3452 29.932 26.4701 29.7872 26.5736ZM31.6689 26.2311L31.5482 26.2635C31.4997 26.0824 31.5954 25.9165 31.8355 25.7659L31.8656 25.7579C31.8872 25.8383 31.8216 25.9961 31.6689 26.2311ZM22.9578 28.8564L23.0484 28.8322C23.1947 28.8146 23.4243 28.9471 23.7373 29.2299L23.5923 29.1717C23.2581 29.1319 23.0574 29.067 22.9902 28.9772L22.9578 28.8564ZM25.1635 28.3948L25.1937 28.3868C25.3547 28.3436 25.5849 28.3574 25.8842 28.4282L25.9004 28.4886L25.8783 28.5268C25.4287 28.5395 25.1932 28.5055 25.1716 28.425L25.1635 28.3948ZM26.9731 28.2659L27.0636 28.2416L27.0879 28.3321L26.9973 28.3564L26.9731 28.2659ZM30.6858 27.271C30.646 27.6052 30.5254 27.7993 30.3242 27.8532C30.2811 27.6922 30.3714 27.5062 30.5953 27.2953L30.6858 27.271ZM27.642 28.8307L28.2921 28.7212C28.6205 28.4175 29.0262 28.201 29.5092 28.0716L29.6601 28.0311C29.8614 27.9772 29.9983 28.0052 30.0709 28.1152C29.285 28.563 28.5801 28.8705 27.9563 29.0377L27.413 29.1833L27.268 29.1251L27.2518 29.0647C27.2504 28.9788 27.3402 28.9116 27.5213 28.8631L27.642 28.8307ZM43.0915 0.0385235L41.7714 0.424585L41.5984 0.503299L41.6146 0.563669L41.7677 0.652057L41.8 0.772798C41.3372 0.896816 41.1327 1.05944 41.1867 1.26068C41.2082 1.34117 41.2774 1.39812 41.3942 1.43153C41.5351 1.39379 41.6264 1.41247 41.668 1.48757L41.7004 1.60831C41.4241 1.70392 41.2712 1.77724 41.2417 1.82827C41.654 3.20601 41.9507 3.87061 42.1318 3.82208C42.3733 3.75738 42.8726 3.85005 43.6298 4.10009C43.5694 4.11627 43.5105 4.21833 43.453 4.40628C44.2371 8.05691 44.6572 10.3492 44.7133 11.2832L44.6228 11.3074L44.3791 11.2433C42.7343 10.4978 40.8453 10.4108 38.7123 10.9824L38.4406 11.0552C37.0521 11.4272 36.114 11.9913 35.6264 12.7474C35.293 13.3544 35.0027 14.1224 34.7556 15.0513C34.2278 17.026 34.1662 18.768 34.5706 20.2773C34.6285 20.4127 34.6775 20.4751 34.7178 20.4643L34.8503 20.2347C34.8072 20.0737 34.8158 19.9851 34.8762 19.9689L34.9608 20.0433L35.1145 20.6168C35.1576 20.7778 35.1343 20.8919 35.0445 20.9591L34.9841 20.9753L34.8811 20.7117L34.7 20.7602C34.7446 21.0071 34.8519 21.5283 35.0219 22.3239L35.1227 22.4587L35.2133 22.4344C35.1364 22.0668 35.1583 21.8668 35.279 21.8345L35.4299 21.794C36.0035 22.2443 36.3442 22.6706 36.4521 23.0731L36.5572 23.4655L36.5351 23.5038L36.3761 23.514C35.8374 23.0329 35.4841 22.7609 35.3163 22.698L35.2257 22.7223L35.2581 22.843C35.285 22.9436 35.547 23.1969 36.044 23.603C36.5386 24.1607 36.9772 24.55 37.3599 24.771C38.5175 25.3882 39.7203 25.6914 40.9683 25.6805C42.2145 25.2603 43.5487 24.3636 44.9709 22.9904C45.4158 22.3967 45.769 22.0648 46.0306 21.9947L46.229 22.9768C46.6046 23.9762 46.8327 24.465 46.9132 24.4435L48.0683 24.1663L48.8348 23.7668L49.1668 23.6779L49.3825 23.8789L49.5636 23.8304C50.5496 23.5662 51.0665 23.2012 51.1143 22.7355L50.8986 22.5344L50.8259 22.2628L50.9363 22.0714C50.8393 21.7092 50.258 21.5522 49.1925 21.6004L49.0065 20.9062C48.8544 19.3724 48.7271 18.4144 48.6246 18.0321L48.5923 17.9113L48.5658 17.6919C48.4756 17.4357 48.3701 17.3238 48.2494 17.3561L48.2332 17.2958C48.354 17.2634 48.2903 16.7844 48.0423 15.8587C47.832 15.0739 47.5354 13.3632 47.1524 10.7267L47.0958 10.5154C46.8637 10.5344 46.7368 10.5037 46.7152 10.4232L46.6322 9.99255C46.6932 9.41542 46.6698 8.92562 46.562 8.52315L46.4326 8.04019C46.4002 7.91945 46.4511 7.7872 46.5851 7.64345C46.5312 7.44221 46.5243 7.3362 46.5646 7.32542C45.8471 4.32558 45.4092 2.32922 45.251 1.33633C45.2294 1.25584 45.0729 1.11444 44.7815 0.912152C44.5848 0.339356 44.4664 0.0583497 44.4262 0.0691338C44.4046 -0.01136 43.9597 -0.0215635 43.0915 0.0385235ZM42.1435 1.8131L42.1494 1.71446L42.3909 1.64975L42.5057 1.71605L42.5138 1.74623L42.1516 1.84329L42.1435 1.8131ZM43.8846 1.67011L43.9207 1.56338L44.1018 1.51485L44.3212 1.48842L44.3454 1.57897L43.8927 1.70029L43.8846 1.67011ZM43.2232 2.46201L43.1386 2.38763C43.1666 2.25071 43.2511 2.16338 43.3919 2.12564L43.7542 2.02858L43.8992 2.08678C43.9261 2.1874 43.7008 2.31247 43.2232 2.46201ZM42.2853 2.58391L42.3214 2.47718L42.5931 2.40438L42.7079 2.47068C42.7094 2.55656 42.6497 2.61568 42.529 2.64803L42.3015 2.64428L42.2853 2.58391ZM37.6569 12.2357L37.7151 12.0907L37.8963 12.0422L38.0493 12.1306L38.0736 12.2211L37.955 12.3823L37.8041 12.4227L37.6974 12.3866L37.6569 12.2357ZM39.6778 12.0501L39.585 11.9455C39.5527 11.8248 39.564 11.7463 39.619 11.71L39.9208 11.6291C40.4696 11.5036 40.8205 11.4851 40.9736 11.5735L41.0059 11.6942L39.6778 12.0501ZM46.7427 9.80118L46.7831 9.95211L46.934 9.91167L46.8936 9.76074L46.7427 9.80118ZM35.9456 13.6972L35.9133 13.5764C36.0268 13.1146 36.2345 12.8433 36.5363 12.7624L36.6873 12.722C36.8684 12.6735 36.9798 12.6868 37.0215 12.7619C37.0862 13.0033 36.7906 13.309 36.1348 13.6788L36.0141 13.7112L35.9456 13.6972ZM41.9077 11.6791L42.3222 11.5356C42.6658 11.5299 42.8645 11.6276 42.9184 11.8288L42.8882 11.8369C42.7474 11.8747 42.4085 11.8576 41.8716 11.7858L41.8473 11.6952L41.9077 11.6791ZM45.1699 10.9344L45.2906 10.902L45.3693 11.075L45.3936 11.1656L45.3715 11.2039C45.291 11.2254 45.2238 11.1356 45.1699 10.9344ZM39.0229 13.2285L39.0671 13.1519L39.2784 13.0953L39.2865 13.1255L39.2121 13.2101L39.0914 13.2425L39.0229 13.2285ZM35.2807 16.5282L35.2564 16.4377C35.1835 16.0043 35.2626 15.4547 35.494 14.7887C35.9698 14.2299 36.2479 13.9397 36.3284 13.9181L36.5095 13.8696L36.4454 14.1133C36.2441 14.1672 35.9549 14.6976 35.5776 15.7046C35.55 16.1649 35.4812 16.4314 35.3713 16.504L35.2807 16.5282ZM38.0915 13.7369L38.1276 13.6301L38.4597 13.5412L38.4678 13.5714L38.3934 13.656L38.0915 13.7369ZM39.8062 13.3745L39.7377 13.3605C39.7161 13.28 39.8938 13.1785 40.2708 13.0559L40.4902 13.0295L40.5063 13.0898L39.8665 13.3583L39.8062 13.3745ZM41.261 12.8876L41.2971 12.7809L41.3273 12.7728C41.448 12.7404 41.5366 12.7491 41.593 12.7987L41.5569 12.9054L41.3758 12.9539L41.261 12.8876ZM42.5729 12.4714L42.6937 12.439L42.7702 12.4832L42.726 12.5598L42.5729 12.4714ZM43.0743 12.5312L43.4063 12.4422C43.6276 12.3829 43.8431 12.4222 44.0526 12.5602L44.0769 12.6507L44.0467 12.6588C43.42 12.6542 43.0958 12.6117 43.0743 12.5312ZM36.6831 21.0377L36.5618 20.5849C36.4324 20.1019 36.3759 19.4484 36.3924 18.6244C36.2686 17.2772 36.4604 16.0611 36.9678 14.9762C36.8977 14.7146 37.646 14.2876 39.2127 13.6953L39.6596 13.6726C41.8584 13.105 42.9848 12.9218 43.0387 13.123L43.0468 13.1532L42.594 13.2745L42.58 13.343L42.7935 13.4152C43.4202 13.4198 43.7444 13.4624 43.7659 13.5429L43.6937 13.7563C43.7153 13.8368 44.0141 14.0264 44.5902 14.3249C44.8115 14.2656 45.0354 14.6586 45.2619 15.5037L45.3428 15.8056C45.4452 16.1879 45.4645 16.5818 45.4006 16.9872C45.4841 18.3452 45.4448 19.1645 45.2827 19.4452C44.8803 19.553 44.5179 20.0922 44.1956 21.0629C43.0655 22.0774 41.8062 22.7708 40.4177 23.1428C39.7738 23.3154 39.1296 23.3262 38.4853 23.1753C37.3593 22.0319 36.7586 21.3194 36.6831 21.0377ZM44.0096 13.607L44.098 13.4539L44.1583 13.4377C44.2952 13.4657 44.3799 13.5401 44.4122 13.6609C44.45 13.8017 44.4313 13.893 44.3562 13.9347L44.2656 13.959L44.0743 13.8485L44.0096 13.607ZM35.7893 19.2713C35.7289 19.2875 35.6906 19.2654 35.6744 19.205C35.651 18.7152 35.6896 18.4569 35.7903 18.4299L35.8808 18.4056L35.9293 18.5867C35.9768 19.0054 35.9301 19.2336 35.7893 19.2713ZM46.5432 21.3721L46.4946 21.191C46.4569 21.0501 46.4957 20.9534 46.611 20.901L46.7016 20.8767C46.7393 21.0176 46.8065 21.1074 46.9032 21.1462L46.9679 21.3877L46.8574 21.5791L46.7971 21.5952C46.7485 21.4141 46.6639 21.3397 46.5432 21.3721ZM44.3278 22.1598L44.2954 22.0391C44.3623 21.8055 44.458 21.6396 44.5827 21.5415L44.6431 21.5253L44.7196 21.5695L44.7358 21.6299C44.6636 21.8434 44.5376 22.0173 44.358 22.1517L44.3278 22.1598ZM41.4063 23.3308L41.3821 23.2403C41.4503 23.0926 42.2242 22.6803 43.7036 22.0035L43.7941 21.9793L43.8184 22.0698C43.7584 22.4094 43.0751 22.7974 41.7686 23.2338L41.4063 23.3308ZM48.143 20.9434L48.1732 20.9353C48.259 20.9339 48.3289 21.0338 48.3829 21.235L48.4637 21.5369L48.4276 21.6436L48.3673 21.6598L48.2826 21.5854L48.1775 21.193L48.143 20.9434ZM37.4397 24.1025L37.5604 24.0702C37.6811 24.0378 37.9972 24.0502 38.5086 24.1073L38.5328 24.1979C37.8526 24.3154 37.4963 24.3138 37.4639 24.1931L37.4397 24.1025ZM38.3097 24.4518L38.3841 24.3671L38.5652 24.3186C39.7661 24.2125 40.3963 24.2701 40.4556 24.4915L40.4637 24.5217L40.4195 24.5982L40.2685 24.6386C39.0219 24.7354 38.369 24.6731 38.3097 24.4518ZM46.8402 22.3601L46.9588 22.1989L47.0192 22.1828L47.0354 22.2431L46.947 22.3962L46.8564 22.4205L46.8402 22.3601ZM42.3308 23.7625L42.3146 23.7022C42.2931 23.6217 42.4735 23.5302 42.8558 23.4277L43.4293 23.2741L43.5361 23.3102C43.5576 23.3907 43.2518 23.5373 42.6187 23.7501L42.4375 23.7986L42.3308 23.7625ZM48.5247 22.0058L48.6756 21.9654L48.7603 22.0398L48.7764 22.1001L48.6255 22.1406L48.549 22.0964L48.5247 22.0058ZM40.551 25.21L40.5268 25.1194C40.5052 25.0389 40.811 24.8923 41.4442 24.6795L42.3438 24.5355L42.36 24.5959C41.7739 24.9039 41.3199 25.101 40.9979 25.1873L40.6055 25.2925L40.551 25.21ZM49.7516 22.8418C49.5705 22.8903 49.4591 22.877 49.4174 22.8019C49.3958 22.7214 49.6339 22.6037 50.1316 22.4488C50.3839 22.4243 50.5181 22.4423 50.5343 22.5026L50.5504 22.563L50.3553 22.68L49.7516 22.8418Z" fill="white"/>
</svg>
