<svg width="20" height="20" viewBox="0 0 20 20" fill="none" xmlns="http://www.w3.org/2000/svg">
<g clip-path="url(#clip0_12_767)">
<path fill-rule="evenodd" clip-rule="evenodd" d="M10.0004 0.416626C7.62645 0.417858 5.33032 1.25867 3.5226 2.78873C1.71488 4.31878 0.51346 6.4383 0.133161 8.76829C-0.247138 11.0983 0.21848 13.4868 1.44677 15.5068C2.67505 17.5267 4.58591 19.0464 6.83765 19.7941C7.33442 19.8863 7.52154 19.5784 7.52154 19.3166C7.52154 19.0548 7.5116 18.2958 7.50829 17.466C4.72637 18.0669 4.13853 16.292 4.13853 16.292C3.68481 15.1395 3.02907 14.8365 3.02907 14.8365C2.12164 14.2208 3.09697 14.2323 3.09697 14.2323C4.1021 14.3031 4.63034 15.258 4.63034 15.258C5.52121 16.7777 6.97012 16.3381 7.53975 16.0813C7.62917 15.4375 7.88915 14.9995 8.17562 14.7509C5.9534 14.5007 3.61857 13.6478 3.61857 9.83781C3.6048 8.84972 3.97356 7.89417 4.64855 7.16886C4.54588 6.9186 4.20311 5.90765 4.74624 4.53449C4.74624 4.53449 5.58579 4.26776 7.4967 5.55366C9.13576 5.10798 10.8651 5.10798 12.5042 5.55366C14.4134 4.26776 15.2513 4.53449 15.2513 4.53449C15.7961 5.90436 15.4533 6.9153 15.3507 7.16886C16.0278 7.89429 16.3973 8.8515 16.3823 9.8411C16.3823 13.6593 14.0425 14.5007 11.8169 14.746C12.1746 15.0555 12.4942 15.6598 12.4942 16.5884C12.4942 17.9188 12.4826 18.989 12.4826 19.3166C12.4826 19.5817 12.6631 19.8912 13.1698 19.7941C15.4218 19.0463 17.3329 17.5264 18.5611 15.5061C19.7894 13.4858 20.2548 11.0969 19.874 8.76667C19.4933 6.43646 18.2913 4.31692 16.483 2.78713C14.6747 1.25734 12.378 0.417077 10.0037 0.416626H10.0004Z" fill="white"/>
<path d="M3.78703 14.6933C3.7655 14.7427 3.68602 14.7575 3.62144 14.7229C3.55686 14.6883 3.50884 14.6241 3.53203 14.5731C3.55521 14.522 3.63304 14.5089 3.69762 14.5434C3.7622 14.578 3.81187 14.6439 3.78703 14.6933Z" fill="white"/>
<path d="M4.19274 15.1428C4.15845 15.16 4.11922 15.1648 4.08176 15.1563C4.0443 15.1479 4.01095 15.1268 3.98741 15.0967C3.92283 15.0275 3.90958 14.932 3.95925 14.8892C4.00893 14.8464 4.09836 14.8662 4.16294 14.9353C4.22752 15.0045 4.24242 15.1 4.19274 15.1428Z" fill="white"/>
<path d="M4.58687 15.7142C4.5256 15.757 4.42128 15.7142 4.36332 15.6286C4.34729 15.6132 4.33455 15.5948 4.32584 15.5744C4.31714 15.5541 4.31264 15.5322 4.31264 15.51C4.31264 15.4879 4.31714 15.466 4.32584 15.4456C4.33455 15.4253 4.34729 15.4068 4.36332 15.3915C4.42459 15.3503 4.52891 15.3915 4.58687 15.4755C4.64483 15.5594 4.64648 15.6714 4.58687 15.7142V15.7142Z" fill="white"/>
<path d="M5.12171 16.2674C5.06707 16.3283 4.95612 16.3118 4.86505 16.2295C4.77397 16.1472 4.75244 16.0352 4.80709 15.9759C4.86173 15.9167 4.97268 15.9331 5.06706 16.0138C5.16145 16.0945 5.17967 16.2081 5.12171 16.2674V16.2674Z" fill="white"/>
<path d="M5.87181 16.5901C5.84697 16.6675 5.73437 16.702 5.62177 16.6691C5.50917 16.6362 5.43465 16.544 5.45618 16.4649C5.47771 16.3859 5.59196 16.3497 5.70622 16.3859C5.82048 16.4221 5.89334 16.5094 5.87181 16.5901Z" fill="white"/>
<path d="M6.68986 16.646C6.68986 16.7267 6.59713 16.7959 6.47791 16.7975C6.35868 16.7991 6.26099 16.7333 6.26099 16.6526C6.26099 16.5719 6.35371 16.5028 6.47294 16.5011C6.59216 16.4995 6.68986 16.5637 6.68986 16.646Z" fill="white"/>
<path d="M7.45158 16.5193C7.46648 16.6 7.38369 16.684 7.26446 16.7037C7.14524 16.7235 7.04091 16.6757 7.02601 16.5967C7.01111 16.5177 7.09722 16.432 7.21313 16.4106C7.32904 16.3892 7.43668 16.4386 7.45158 16.5193Z" fill="white"/>
</g>
<defs>
<clipPath id="clip0_12_767">
<rect width="20" height="20" fill="white"/>
</clipPath>
</defs>
</svg>
