<svg width="20" height="20" viewBox="0 0 20 20" fill="none" xmlns="http://www.w3.org/2000/svg">
<g clip-path="url(#clip0_6_19)">
<path fill-rule="evenodd" clip-rule="evenodd" d="M10.0004 0.416664C7.62645 0.417896 5.33031 1.25871 3.52259 2.78877C1.71488 4.31882 0.513456 6.43834 0.133157 8.76833C-0.247142 11.0983 0.218476 13.4868 1.44676 15.5068C2.67505 17.5268 4.5859 19.0465 6.83764 19.7941C7.33442 19.8863 7.52153 19.5785 7.52153 19.3167C7.52153 19.0549 7.5116 18.2958 7.50828 17.466C4.72637 18.067 4.13852 16.2921 4.13852 16.2921C3.68481 15.1395 3.02907 14.8366 3.02907 14.8366C2.12163 14.2208 3.09697 14.2323 3.09697 14.2323C4.1021 14.3031 4.63033 15.2581 4.63033 15.2581C5.52121 16.7778 6.97012 16.3382 7.53975 16.0813C7.62916 15.4375 7.88915 14.9996 8.17562 14.751C5.9534 14.5007 3.61857 13.6478 3.61857 9.83785C3.6048 8.84976 3.97356 7.89421 4.64855 7.1689C4.54588 6.91863 4.2031 5.90769 4.74624 4.53452C4.74624 4.53452 5.58579 4.26779 7.4967 5.5537C9.13576 5.10802 10.8651 5.10802 12.5042 5.5537C14.4134 4.26779 15.2513 4.53452 15.2513 4.53452C15.7961 5.9044 15.4533 6.91534 15.3506 7.1689C16.0278 7.89432 16.3973 8.85154 16.3823 9.84114C16.3823 13.6593 14.0425 14.5007 11.8169 14.746C12.1746 15.0556 12.4942 15.6598 12.4942 16.5884C12.4942 17.9188 12.4826 18.989 12.4826 19.3167C12.4826 19.5817 12.6631 19.8913 13.1698 19.7941C15.4218 19.0464 17.3329 17.5264 18.5611 15.5061C19.7894 13.4858 20.2548 11.0969 19.874 8.76671C19.4933 6.4365 18.2913 4.31696 16.483 2.78717C14.6747 1.25738 12.378 0.417115 10.0037 0.416664H10.0004Z" fill="white"/>
<path d="M3.78704 14.6933C3.76551 14.7427 3.68603 14.7576 3.62145 14.723C3.55686 14.6884 3.50885 14.6242 3.53203 14.5731C3.55521 14.5221 3.63304 14.5089 3.69762 14.5435C3.7622 14.5781 3.81187 14.6439 3.78704 14.6933Z" fill="white"/>
<path d="M4.19275 15.1428C4.15845 15.16 4.11922 15.1648 4.08176 15.1564C4.04431 15.148 4.01096 15.1269 3.98742 15.0967C3.92284 15.0276 3.90958 14.9321 3.95926 14.8893C4.00894 14.8465 4.09836 14.8662 4.16294 14.9354C4.22752 15.0045 4.24242 15.1 4.19275 15.1428Z" fill="white"/>
<path d="M4.58687 15.7142C4.5256 15.757 4.42127 15.7142 4.36331 15.6285C4.34729 15.6132 4.33454 15.5948 4.32584 15.5744C4.31713 15.554 4.31264 15.5321 4.31264 15.51C4.31264 15.4879 4.31713 15.466 4.32584 15.4456C4.33454 15.4252 4.34729 15.4068 4.36331 15.3914C4.42458 15.3503 4.52891 15.3914 4.58687 15.4754C4.64482 15.5594 4.64648 15.6713 4.58687 15.7142Z" fill="white"/>
<path d="M5.12171 16.2674C5.06707 16.3283 4.95612 16.3118 4.86505 16.2295C4.77397 16.1472 4.75244 16.0352 4.80709 15.9759C4.86173 15.9167 4.97268 15.9331 5.06706 16.0138C5.16145 16.0945 5.17967 16.2081 5.12171 16.2674Z" fill="white"/>
<path d="M5.87181 16.5901C5.84697 16.6675 5.73437 16.702 5.62176 16.6691C5.50916 16.6362 5.43465 16.544 5.45617 16.4649C5.4777 16.3859 5.59196 16.3497 5.70622 16.3859C5.82047 16.4221 5.89333 16.5094 5.87181 16.5901Z" fill="white"/>
<path d="M6.68986 16.6461C6.68986 16.7267 6.59713 16.7959 6.47791 16.7975C6.35868 16.7992 6.26099 16.7333 6.26099 16.6526C6.26099 16.572 6.35371 16.5028 6.47294 16.5012C6.59216 16.4995 6.68986 16.5637 6.68986 16.6461Z" fill="white"/>
<path d="M7.45158 16.5193C7.46649 16.6 7.38369 16.6839 7.26447 16.7037C7.14524 16.7234 7.04092 16.6757 7.02602 16.5967C7.01111 16.5176 7.09722 16.432 7.21313 16.4106C7.32905 16.3892 7.43668 16.4386 7.45158 16.5193Z" fill="white"/>
</g>
<defs>
<clipPath id="clip0_6_19">
<rect width="20" height="20" fill="white"/>
</clipPath>
</defs>
</svg>
