<svg width="155" height="150" viewBox="0 0 155 150" fill="none" xmlns="http://www.w3.org/2000/svg">
<path fill-rule="evenodd" clip-rule="evenodd" d="M77.3958 7.87764C92.6099 6.73711 108.946 -5.28376 121.947 2.74685C134.9 10.7484 131.672 30.7506 137.372 44.9254C142.742 58.2811 155.436 69.2484 154.465 83.622C153.481 98.1991 142.822 110.26 132.283 120.315C122.414 129.73 109.517 134.043 96.7286 138.704C83.1026 143.669 68.6285 153.96 55.2346 148.393C41.7142 142.772 41.6541 123.098 32.1918 111.875C22.8825 100.834 4.02518 97.643 0.592141 83.5835C-2.81874 69.6147 9.34546 57.0231 15.6449 44.11C21.7559 31.5832 24.9348 16.1519 36.9174 9.12112C48.8187 2.13804 63.6557 8.90767 77.3958 7.87764Z" fill="#E9C79A"/>
<path d="M78.5312 40H102.907C106.272 40 109 42.732 109 46.0963V67.625H78.5312V40ZM74.4688 40H50.0931C46.7308 40 44 42.7295 44 46.0963V99.3125H74.4688V40Z" fill="#191919"/>
<path d="M78.5312 71.6875V99.3125H109V71.6875H78.5312Z" fill="#191919"/>
</svg>
