<svg width="159" height="150" viewBox="0 0 159 150" fill="none" xmlns="http://www.w3.org/2000/svg">
<path fill-rule="evenodd" clip-rule="evenodd" d="M75.1765 0.0600281C90.6084 -1.17003 100.198 16.7989 111.954 26.8824C122.042 35.5341 131.762 43.8749 139.147 54.9281C147.728 67.7705 160.235 80.8123 158.222 96.1309C156.208 111.452 141.874 122.253 129.149 130.999C118.319 138.443 104.766 138.422 92.0257 141.627C79.8827 144.682 68.2574 152.179 56.0508 149.389C43.6187 146.548 34.3796 136.456 26.2726 126.602C18.3205 116.936 13.8871 105.481 10.1078 93.5432C5.65126 79.4668 -4.53842 63.9405 2.29069 50.8521C9.17994 37.6484 29.7668 40.9703 41.979 32.46C54.9249 23.4384 59.453 1.31334 75.1765 0.0600281Z" fill="#E9C79A"/>
<path d="M108.917 62.0229L104.297 68.9717C106.525 73.4155 107.616 78.3426 107.472 83.3115C107.327 88.2805 105.953 93.136 103.471 97.4431H51.4109C48.185 91.8469 46.8483 85.3601 47.599 78.9444C48.3496 72.5288 51.1476 66.5258 55.5782 61.8254C60.0088 57.125 65.8361 53.9774 72.1963 52.8493C78.5564 51.7211 85.1108 52.6725 90.8877 55.5623L97.8365 50.9423C90.7618 46.4057 82.37 44.3729 74.0035 45.1689C65.637 45.965 57.7792 49.5439 51.6869 55.3333C45.5947 61.1226 41.62 68.7879 40.3988 77.103C39.1775 85.4181 40.7801 93.9025 44.9504 101.199C45.6058 102.335 46.547 103.279 47.6804 103.938C48.8138 104.597 50.0999 104.947 51.4109 104.955H103.433C104.757 104.961 106.059 104.616 107.206 103.956C108.354 103.297 109.307 102.346 109.969 101.199C113.43 95.2041 115.166 88.3693 114.987 81.4494C114.808 74.5294 112.721 67.7935 108.955 61.9853L108.917 62.0229ZM72.1447 87.7147C72.8424 88.4132 73.6709 88.9673 74.5828 89.3453C75.4948 89.7234 76.4724 89.918 77.4596 89.918C78.4468 89.918 79.4244 89.7234 80.3363 89.3453C81.2483 88.9673 82.0768 88.4132 82.7745 87.7147L104.034 55.8253L72.1447 77.0849C71.4462 77.7826 70.8921 78.6111 70.5141 79.5231C70.136 80.4351 69.9414 81.4126 69.9414 82.3998C69.9414 83.387 70.136 84.3646 70.5141 85.2766C70.8921 86.1885 71.4462 87.017 72.1447 87.7147Z" fill="#191919"/>
</svg>
