<svg width="161" height="150" viewBox="0 0 161 150" fill="none" xmlns="http://www.w3.org/2000/svg">
<path fill-rule="evenodd" clip-rule="evenodd" d="M81.0112 1.33972C93.5273 3.11648 103.295 11.5222 114.951 16.3945C129.663 22.5443 151.035 19.6968 158.499 33.7305C165.854 47.5619 150.124 63.0166 147.99 78.5199C145.834 94.1743 156.242 112.89 145.943 124.917C135.658 136.927 115.565 130.023 100.281 134.233C85.3297 138.351 72.2767 153.303 57.284 149.337C42.3129 145.377 37.433 126.896 27.5816 115.001C18.0287 103.467 2.41129 95.2819 0.263595 80.4896C-1.88424 65.6964 9.59048 52.8885 16.6477 39.6936C23.2705 27.3109 28.1239 12.9927 40.2187 5.78549C52.1963 -1.35194 67.1896 -0.622393 81.0112 1.33972Z" fill="#E9C79A"/>
<path d="M40 95.5V89.25H52.5C50.8424 89.25 49.2527 88.5915 48.0806 87.4194C46.9085 86.2473 46.25 84.6576 46.25 83V51.75C46.25 50.0924 46.9085 48.5027 48.0806 47.3306C49.2527 46.1585 50.8424 45.5 52.5 45.5H102.5C104.158 45.5 105.747 46.1585 106.919 47.3306C108.092 48.5027 108.75 50.0924 108.75 51.75V83C108.75 84.6576 108.092 86.2473 106.919 87.4194C105.747 88.5915 104.158 89.25 102.5 89.25H115V95.5H96.25C96.25 97.1576 95.5915 98.7473 94.4194 99.9194C93.2473 101.092 91.6576 101.75 90 101.75H74.375C72.7174 101.75 71.1277 101.092 69.9556 99.9194C68.7835 98.7473 68.125 97.1576 68.125 95.5H40ZM75.9375 95.5C75.5231 95.5 75.1257 95.6646 74.8326 95.9576C74.5396 96.2507 74.375 96.6481 74.375 97.0625C74.375 97.4769 74.5396 97.8743 74.8326 98.1674C75.1257 98.4604 75.5231 98.625 75.9375 98.625C76.3519 98.625 76.7493 98.4604 77.0424 98.1674C77.3354 97.8743 77.5 97.4769 77.5 97.0625C77.5 96.6481 77.3354 96.2507 77.0424 95.9576C76.7493 95.6646 76.3519 95.5 75.9375 95.5ZM88.4375 95.5C88.0231 95.5 87.6257 95.6646 87.3326 95.9576C87.0396 96.2507 86.875 96.6481 86.875 97.0625C86.875 97.4769 87.0396 97.8743 87.3326 98.1674C87.6257 98.4604 88.0231 98.625 88.4375 98.625C88.8519 98.625 89.2493 98.4604 89.5424 98.1674C89.8354 97.8743 90 97.4769 90 97.0625C90 96.6481 89.8354 96.2507 89.5424 95.9576C89.2493 95.6646 88.8519 95.5 88.4375 95.5Z" fill="#191919"/>
<path d="M80.625 95.5V98.625H83.75V95.5H80.625ZM74.375 70.5V92.375H90V70.5H74.375Z" fill="#E9C79A"/>
<path d="M52.5 51.75V83H68.125V70.5C68.125 68.8424 68.7835 67.2527 69.9556 66.0806C71.1277 64.9085 72.7174 64.25 74.375 64.25H90C91.6576 64.25 93.2473 64.9085 94.4194 66.0806C95.5915 67.2527 96.25 68.8424 96.25 70.5V83H102.5V51.75H52.5Z" fill="#E9C79A"/>
</svg>
